<svg xmlns="http://www.w3.org/2000/svg" width="595.28" height="841.89" viewBox="0 0 595.28 841.89">
  <path d="M368.57,417l-20.45-22.89a12.8,12.8,0,0,0-9.54-4.28H300.76A11.33,11.33,0,0,0,292,394l-20.3,25.13a24.19,24.19,0,0,0-5.37,15.19v64.2A10.79,10.79,0,0,0,277,509.34H363a11.15,11.15,0,0,0,11.15-11.06l.49-65.29A23.78,23.78,0,0,0,368.57,417ZM321,467.06a22.38,22.38,0,0,1-19.22-33.84l38.48.07A22.39,22.39,0,0,1,321,467.06Z" style="fill: #c6c6c6"/>
  <rect x="291.88" y="509.17" width="8.26" height="16.35" style="fill: #c6c6c6"/>
  <rect x="316.9" y="509.42" width="8.26" height="16.35" style="fill: #c6c6c6"/>
  <rect x="341.01" y="509.26" width="8.26" height="16.35" style="fill: #c6c6c6"/>
  <rect x="291.39" y="518.75" width="8.92" height="6.94" style="fill: #9f9f9f"/>
  <rect x="316.69" y="519.47" width="8.92" height="6.94" style="fill: #9f9f9f"/>
  <rect x="340.64" y="519.03" width="8.92" height="6.94" style="fill: #9f9f9f"/>
</svg>
