<svg xmlns="http://www.w3.org/2000/svg" width="76.81" height="96.87" viewBox="0 0 76.81 96.87">
  <path d="M84.29,21,69.79,4.72a9.06,9.06,0,0,0-6.76-3H36.21a8,8,0,0,0-6.24,3L15.57,22.5a17.15,17.15,0,0,0-3.8,10.77V78.79a7.65,7.65,0,0,0,7.62,7.67H80.32a7.9,7.9,0,0,0,7.9-7.85l.36-46.29A16.89,16.89,0,0,0,84.29,21ZM50.58,56.48A15.88,15.88,0,0,1,37,32.49l27.29,0A15.86,15.86,0,0,1,50.58,56.48Z" transform="translate(-11.77 -1.68)" style="fill: #c6c6c6"/>
  <rect x="18.15" y="84.66" width="5.85" height="11.59" style="fill: #c6c6c6"/>
  <rect x="35.89" y="84.83" width="5.85" height="11.59" style="fill: #c6c6c6"/>
  <rect x="52.98" y="84.72" width="5.85" height="11.59" style="fill: #c6c6c6"/>
  <rect x="17.8" y="91.45" width="6.32" height="4.92" style="fill: #9f9f9f"/>
  <rect x="35.74" y="91.96" width="6.32" height="4.92" style="fill: #9f9f9f"/>
  <rect x="52.72" y="91.64" width="6.32" height="4.92" style="fill: #9f9f9f"/>
</svg>
